<?xml version="1.0" encoding="iso-8859-1"?>
<!-- Generator: Adobe Illustrator 19.0.0, SVG Export Plug-In . SVG Version: 6.00 Build 0)  -->
<svg version="1.1" id="Layer_1" xmlns="http://www.w3.org/2000/svg" x="0px" y="0px"
	 viewBox="0 0 512.001 512.001" style="enable-background:new 0 0 512.001 512.001;" xml:space="preserve">
<path d="M501.402,256.835c-2.899-8.855-12.425-13.679-21.278-10.783l-22.611,7.402c-2.537-13.514-6.207-27.196-10.939-40.814
	c38.858-15.047,65.428-52.611,65.428-95.734c0-102.231-133.848-141.156-188.92-55.851c-42.269-20.808-88.704-22.307-134.165-0.01
	C133.742-24.395,0,14.808,0,116.906c0,43.124,26.57,80.689,65.43,95.735c-4.729,13.621-8.405,27.304-10.941,40.813l-22.613-7.403
	c-8.849-2.892-18.379,1.93-21.278,10.783c-2.898,8.853,1.93,18.382,10.783,21.28l29.11,9.529
	c-0.984,22.212,1.244,44.653,8.87,65.832l-37.411,10.8c-8.95,2.583-14.112,11.934-11.528,20.884
	c2.585,8.955,11.94,14.112,20.885,11.528l43.879-12.667c29.499,41.8,80.002,59.535,130.597,65.773v31.091
	c0,9.316,7.552,16.868,16.868,16.868h66.699c9.316,0,16.868-7.552,16.868-16.868v-31.092c50.57-6.234,101.089-23.958,130.597-65.772
	l43.879,12.667c8.951,2.585,18.302-2.58,20.885-11.528c2.583-8.95-2.577-18.301-11.528-20.884l-37.411-10.8
	c7.529-20.904,9.87-43.235,8.87-65.832l29.11-9.529C499.473,275.215,504.3,265.688,501.402,256.835z M478.264,116.906
	c0,29.174-18.087,54.572-44.479,64.525c-18.837-39.64-47.173-77.188-81.902-102.783C389.403,22.158,478.264,48.777,478.264,116.906z
	 M33.736,116.906c0-68.249,88.916-94.587,126.357-38.294c-34.931,25.692-63.198,63.451-81.883,102.816
	C51.822,171.475,33.736,146.077,33.736,116.906z M256,370.876l-35.938-37.664h71.875L256,370.876z M239.519,464.016V452.4
	c10.962,0.387,21.988,0.388,32.963,0v11.615H239.519z M420.154,344.098l-41.628-12.017c-8.946-2.583-18.3,2.577-20.885,11.528
	c-2.583,8.95,2.577,18.301,11.528,20.884l32.543,9.394c-30.699,33.326-83.727,42.974-128.845,44.738v-16.559l51.383-53.853
	c17.465-18.304,4.473-48.738-20.86-48.738h-94.784c-25.299,0-38.349,30.41-20.861,48.737l51.384,53.854v16.559
	c-45.077-1.762-98.132-11.396-128.845-44.738l32.543-9.394c8.95-2.583,14.112-11.934,11.528-20.884
	c-2.584-8.951-11.939-14.114-20.885-11.528l-41.628,12.017c-5.113-13.263-7.706-28.376-7.84-45.483l48.898,16.008
	c8.869,2.9,18.384-1.943,21.278-10.783c2.898-8.853-1.93-18.382-10.783-21.28l-56.533-18.506
	c2.941-17.557,8.172-36.165,16.262-55.681c82.111-182.786,238.191-161.598,305.56-0.418c8.141,19.477,13.485,38.393,16.45,56.097
	l-56.539,18.509c-8.855,2.898-13.682,12.426-10.783,21.28c2.898,8.849,12.418,13.681,21.278,10.783l48.898-16.008
	C427.86,315.721,425.267,330.835,420.154,344.098z M192.717,223.134c0.011-12.324-9.97-22.323-22.294-22.334
	c-12.324-0.011-22.323,9.97-22.334,22.294c-0.011,12.324,9.97,22.323,22.294,22.334S192.706,235.458,192.717,223.134z
	 M363.035,223.281c0.011-12.324-9.97-22.323-22.294-22.334c-12.324-0.011-22.323,9.97-22.334,22.294s9.97,22.323,22.294,22.334
	C353.025,245.586,363.024,235.605,363.035,223.281z"/>
<g>
</g>
<g>
</g>
<g>
</g>
<g>
</g>
<g>
</g>
<g>
</g>
<g>
</g>
<g>
</g>
<g>
</g>
<g>
</g>
<g>
</g>
<g>
</g>
<g>
</g>
<g>
</g>
<g>
</g>
</svg>
